<?xml version="1.0" standalone="no"?>
<!DOCTYPE svg PUBLIC "-//W3C//DTD SVG 20010904//EN"
 "http://www.w3.org/TR/2001/REC-SVG-20010904/DTD/svg10.dtd">
<svg version="1.0" xmlns="http://www.w3.org/2000/svg"
 width="1188.000000pt" height="1448.000000pt" viewBox="0 0 1188.000000 1448.000000"
 preserveAspectRatio="xMidYMid meet">

<g transform="translate(0.000000,1448.000000) scale(0.100000,-0.100000)"
fill="#000000" stroke="none">
<path d="M964 14265 c-154 -39 -256 -98 -365 -211 -182 -190 -257 -432 -229
-740 26 -281 121 -473 317 -645 122 -107 268 -168 493 -207 l45 -8 3 -387 2
-387 100 0 100 0 2 387 3 387 45 8 c185 31 253 51 367 109 322 162 515 556
473 965 -24 236 -97 399 -247 546 -112 111 -174 150 -299 187 -122 36 -240 24
-339 -34 -49 -28 -128 -113 -151 -160 -47 -100 -47 -101 -51 -815 -2 -371 -6
-681 -8 -688 -8 -21 -136 33 -227 95 -148 104 -254 322 -279 578 -49 509 78
856 354 960 43 16 47 20 47 51 0 32 -2 34 -32 33 -18 0 -74 -11 -124 -24z
m752 -221 c62 -29 154 -129 200 -219 79 -156 104 -273 104 -495 0 -259 -45
-410 -162 -552 -84 -101 -261 -197 -389 -210 l-34 -3 -3 640 c-2 440 1 659 8
700 14 72 50 131 93 151 41 18 131 13 183 -12z"/>
<path d="M3385 14148 c-7 -18 -32 -76 -55 -128 -190 -431 -950 -2170 -950
-2175 0 -3 459 -5 1020 -5 561 0 1020 4 1020 9 0 4 -24 66 -54 137 -52 123
-453 1092 -521 1259 -48 116 -277 669 -337 813 -49 116 -53 122 -80 122 -23 0
-32 -6 -43 -32z m3 -600 c22 -57 99 -247 171 -423 71 -176 204 -502 294 -725
l165 -405 -701 -3 c-385 -1 -702 0 -705 2 -2 3 42 110 98 238 126 286 399 908
527 1201 53 119 99 217 103 217 4 0 25 -46 48 -102z"/>
<path d="M6765 13161 c-95 -26 -165 -74 -194 -135 -26 -53 -26 -91 -1 -140 10
-22 17 -44 13 -50 -3 -6 -24 -40 -47 -76 -64 -102 -186 -333 -186 -353 0 -21
-53 -127 -64 -127 -10 0 -53 9 -124 25 -21 5 -23 2 -20 -22 3 -25 8 -28 67
-40 36 -7 66 -15 68 -17 2 -2 -5 -30 -16 -62 -22 -69 -35 -116 -33 -126 1 -4
-10 -16 -23 -26 -25 -20 -25 -22 -25 -166 0 -80 -4 -146 -9 -146 -15 0 -24
-335 -12 -430 7 -47 16 -123 21 -170 12 -111 31 -221 42 -242 11 -22 -22 -41
-117 -68 -161 -45 -537 -233 -614 -308 -8 -7 -24 -20 -37 -29 -16 -10 -24 -25
-24 -44 0 -22 -6 -32 -25 -39 -14 -5 -25 -14 -25 -20 0 -5 -6 -10 -12 -10 -7
-1 -49 -15 -93 -33 -58 -23 -81 -37 -83 -52 -2 -11 -18 -36 -36 -55 -17 -19
-64 -69 -103 -111 -70 -76 -89 -102 -224 -305 -71 -107 -159 -269 -159 -294 0
-8 -9 -30 -20 -48 -11 -18 -20 -38 -20 -45 0 -7 -11 -35 -23 -63 -13 -27 -29
-60 -35 -74 -10 -23 -11 -23 -11 15 -1 22 -8 50 -16 62 -8 11 -25 64 -39 116
-13 52 -29 103 -35 113 -13 23 -15 0 -1 -24 5 -9 19 -55 30 -101 12 -46 27
-93 35 -105 18 -25 19 -53 3 -59 -10 -4 -10 -6 0 -6 23 -2 12 -28 -27 -68 -66
-65 -66 -120 -3 -183 l37 -37 -63 -39 c-80 -49 -136 -111 -175 -192 -42 -89
-46 -166 -15 -258 l24 -72 -79 -98 c-43 -55 -96 -119 -117 -144 -22 -25 -69
-83 -105 -130 -36 -47 -78 -98 -94 -115 -15 -16 -43 -50 -61 -75 -41 -52 -49
-63 -122 -150 -29 -36 -89 -110 -133 -165 -44 -55 -95 -118 -115 -140 -19 -22
-49 -58 -66 -80 -39 -50 -111 -138 -262 -324 -64 -79 -150 -185 -190 -235 -41
-50 -100 -122 -132 -161 -32 -38 -95 -115 -139 -170 -89 -111 -198 -246 -205
-252 -5 -6 -84 40 -171 100 -39 26 -243 162 -455 302 -212 140 -419 277 -460
305 -41 29 -91 61 -110 73 l-35 21 107 15 c59 9 110 19 113 23 4 3 4 16 0 29
-7 20 -12 21 -67 16 -52 -5 -57 -4 -37 7 13 7 53 28 89 48 36 20 106 57 155
83 50 26 126 67 170 90 147 78 399 211 500 265 55 29 127 67 160 85 57 31 190
102 320 170 79 42 388 205 495 263 47 24 132 69 190 100 58 30 131 70 163 88
32 19 62 34 67 34 5 0 37 16 70 36 69 40 232 127 389 206 l103 53 -59 3 c-57
3 -66 0 -179 -61 -65 -35 -164 -88 -219 -117 -55 -29 -172 -91 -260 -138 -88
-46 -191 -101 -230 -122 -62 -33 -164 -87 -495 -263 -97 -52 -165 -87 -375
-197 -66 -34 -124 -66 -130 -70 -5 -5 -57 -33 -115 -63 -215 -111 -576 -303
-745 -394 -44 -23 -122 -64 -172 -90 -61 -32 -93 -54 -93 -65 0 -9 -5 -18 -11
-20 -10 -3 -28 -1831 -29 -2984 l0 -490 -64 -41 c-34 -22 -86 -68 -113 -101
-186 -222 -174 -535 27 -743 193 -199 496 -211 703 -29 l47 42 38 -19 c20 -10
69 -35 107 -55 39 -20 111 -56 160 -81 50 -25 106 -53 125 -63 19 -9 44 -22
55 -27 11 -6 191 -97 400 -202 209 -106 621 -314 915 -462 294 -149 551 -279
570 -288 19 -10 42 -22 51 -26 8 -4 172 -87 364 -184 210 -106 351 -173 353
-166 3 8 8 9 15 2 8 -6 44 9 112 48 137 78 337 191 410 231 33 18 77 44 97 57
21 12 40 23 42 23 3 0 47 24 98 53 122 70 330 187 393 222 28 15 79 44 115 65
126 72 236 134 290 163 30 16 80 44 110 62 30 18 80 46 110 62 30 16 93 51
140 78 236 134 292 166 370 210 47 27 108 60 135 75 49 26 156 86 287 162 138
79 299 168 305 168 3 0 30 -26 58 -58 210 -232 562 -170 702 123 69 146 69
295 -1 441 -46 98 -137 190 -218 224 l-58 24 1 775 c1 427 4 816 8 865 l6 90
1280 356 c704 196 1288 359 1298 363 20 7 23 35 4 42 -7 3 -587 -154 -1289
-350 -703 -195 -1283 -355 -1289 -355 -9 0 -11 208 -7 865 4 713 3 865 -8 865
-7 0 -11 6 -8 13 2 7 -9 19 -28 28 -18 8 -139 70 -268 136 -129 66 -370 189
-535 273 -165 84 -419 214 -565 288 -146 74 -278 141 -295 149 -16 8 -39 19
-49 25 -46 25 -1111 568 -1163 593 -41 19 -43 22 -43 66 0 165 -118 315 -310
395 -30 13 -50 23 -45 24 6 0 84 2 175 5 91 3 176 9 190 14 14 5 66 15 115 21
50 7 115 19 145 27 30 8 69 18 85 22 17 4 40 5 50 1 21 -8 115 17 115 31 0 4
30 17 66 29 36 12 73 31 82 41 9 11 23 19 32 19 8 0 33 16 55 35 22 19 46 35
53 35 6 0 12 4 12 9 0 4 17 11 38 14 36 5 178 86 290 166 30 21 102 82 162
135 60 53 111 96 114 96 3 0 43 -34 88 -76 46 -42 94 -84 108 -93 14 -8 31
-24 38 -33 7 -10 18 -18 23 -18 12 0 71 -42 112 -79 15 -14 33 -26 40 -27 7
-1 33 -15 57 -31 40 -27 93 -58 156 -91 92 -48 266 -102 331 -102 22 0 57 -7
76 -15 20 -8 53 -15 74 -15 41 -1 127 -21 139 -33 4 -4 25 -7 46 -7 33 0 38
-3 38 -23 0 -15 9 -26 30 -36 41 -18 344 -29 529 -19 123 6 151 5 195 -10 33
-11 82 -17 141 -17 77 0 98 4 145 27 72 36 105 78 105 138 0 29 -7 54 -20 72
-24 33 -98 75 -151 86 -37 7 -40 11 -65 77 -15 37 -34 81 -43 96 -9 15 -16 34
-16 43 0 9 -4 16 -10 16 -5 0 -10 9 -10 19 0 11 -5 23 -11 27 -6 3 -20 25 -31
48 -40 85 -175 296 -190 296 -4 0 -8 5 -8 11 0 15 -132 172 -188 224 -23 22
-57 62 -75 89 -17 28 -56 67 -86 87 -30 21 -64 50 -76 65 -11 14 -30 27 -41
28 -17 1 -96 48 -270 164 -36 23 -69 42 -75 42 -6 0 -28 9 -48 20 -70 38 -259
117 -294 124 -20 4 -49 13 -64 21 -15 8 -34 15 -40 15 -15 0 -16 38 -2 100 5
25 12 59 14 75 2 17 9 53 16 80 8 34 12 150 12 360 -1 255 -4 324 -18 390 -9
44 -21 108 -26 142 -4 34 -14 75 -22 90 -7 15 -20 55 -27 88 -8 33 -20 71 -27
85 -7 14 -13 30 -13 37 0 12 -34 97 -77 193 -23 53 -30 67 -76 155 -12 22 -49
83 -83 136 l-63 96 16 44 c33 90 -13 176 -121 229 -54 27 -79 33 -148 36 -46
2 -96 0 -113 -5z m28 -63 c-11 -13 -26 -31 -34 -41 -8 -10 -21 -26 -31 -35 -9
-9 -36 -43 -61 -75 -42 -54 -46 -57 -56 -38 -45 82 54 187 198 210 3 1 -5 -9
-16 -21z m234 -24 c48 -28 83 -79 83 -122 0 -45 -11 -45 -50 1 -19 22 -56 64
-82 92 -27 29 -48 55 -48 60 0 12 51 -4 97 -31z m-123 -271 c4 -9 -8 -13 -41
-13 -42 0 -44 1 -32 18 8 9 18 20 23 24 11 7 44 -11 50 -29z m89 -143 c32 -49
60 -95 61 -104 1 -8 10 -23 19 -34 9 -10 17 -22 17 -25 0 -4 17 -36 39 -71 21
-35 41 -76 45 -92 4 -16 14 -37 23 -46 19 -21 55 -156 48 -178 -3 -9 1 -33 10
-53 9 -21 15 -67 15 -109 0 -69 2 -74 28 -89 39 -22 49 -50 62 -179 17 -153 4
-574 -19 -625 -15 -35 -35 -109 -32 -126 4 -34 -21 -40 -140 -29 -148 13 -392
13 -555 0 -166 -14 -171 -13 -179 48 -4 26 -10 56 -15 67 -12 28 -40 221 -40
275 0 25 -4 62 -9 83 -5 21 -5 39 0 43 5 3 9 58 9 122 0 64 7 158 16 207 8 50
19 119 23 155 5 36 14 78 20 94 7 16 9 36 7 43 -3 8 -2 11 3 8 6 -3 13 15 17
40 3 25 10 48 14 50 5 3 12 31 16 62 5 43 13 62 30 76 13 10 24 24 24 30 0 6
11 34 24 62 13 27 38 79 55 115 43 88 76 144 117 198 19 25 34 49 34 53 0 4
33 10 73 12 39 1 74 4 77 5 3 1 31 -39 63 -88z m-566 -657 c-3 -10 -5 -4 -5
12 0 17 2 24 5 18 2 -7 2 -21 0 -30z m673 -1338 c19 -3 54 -8 78 -11 52 -7 53
-1 -32 -172 -108 -218 -99 -204 -213 -363 -24 -32 -49 -59 -56 -59 -13 0 -61
59 -102 125 -11 18 -41 63 -66 101 -25 38 -77 132 -114 208 -64 131 -67 140
-50 153 11 7 37 14 59 14 23 1 55 5 71 9 33 9 368 5 425 -5z m-771 -135 c18
-38 37 -72 42 -75 5 -4 9 -14 9 -23 0 -9 23 -55 50 -101 28 -46 50 -89 50 -94
0 -6 6 -18 13 -26 7 -9 31 -45 52 -81 22 -36 60 -91 85 -123 25 -32 55 -72 68
-90 l23 -32 -88 -85 c-105 -101 -157 -145 -215 -177 -24 -14 -52 -32 -63 -42
-17 -15 -58 -39 -220 -125 -16 -8 -57 -28 -90 -42 -33 -15 -71 -37 -85 -48
-14 -12 -56 -32 -95 -45 -38 -12 -79 -26 -90 -30 -46 -19 -147 -34 -250 -37
-60 -2 -132 -8 -160 -14 -50 -12 -348 -8 -468 5 l-58 7 6 36 c10 60 160 345
230 437 35 47 71 97 80 112 48 87 105 155 200 240 78 69 140 118 175 137 19
10 40 24 45 31 14 17 105 77 234 153 86 52 254 132 275 132 8 0 18 5 21 10 3
6 15 10 26 10 11 0 34 8 52 17 27 14 50 21 108 32 3 0 21 -30 38 -69z m1213
44 c14 -8 48 -21 75 -30 120 -40 344 -154 410 -209 23 -19 47 -35 53 -35 13 0
134 -88 168 -122 12 -12 22 -27 22 -33 0 -5 33 -23 73 -39 82 -34 122 -59 156
-99 38 -45 81 -111 81 -124 0 -7 5 -13 10 -13 6 0 10 -15 10 -32 0 -18 8 -45
18 -59 9 -15 40 -61 68 -103 29 -41 68 -109 88 -151 21 -41 41 -77 46 -80 6
-4 10 -13 10 -20 0 -8 12 -40 27 -71 46 -97 33 -102 -310 -103 -279 -1 -483
25 -462 59 7 12 -21 20 -70 20 -24 0 -47 5 -50 10 -3 6 -21 10 -38 10 -18 0
-42 7 -54 15 -12 8 -28 12 -36 9 -8 -3 -31 2 -52 10 -21 9 -44 16 -52 16 -8 0
-21 7 -29 15 -9 8 -24 15 -33 15 -10 0 -24 7 -31 15 -7 8 -17 15 -22 15 -22 0
-232 119 -279 158 -8 6 -35 28 -61 47 -121 89 -146 110 -196 162 -67 70 -70
58 51 222 41 55 87 131 123 201 16 30 46 82 66 116 20 34 41 79 47 100 6 21
18 48 26 58 8 11 15 27 15 36 0 42 64 49 132 14z m1672 -1327 c53 -30 80 -68
72 -101 -14 -58 -83 -95 -191 -103 -78 -6 -113 10 -47 21 20 4 61 12 90 18
l54 12 -7 35 c-3 20 -13 55 -21 79 -24 71 -16 77 50 39z m-4629 -154 c22 -6
73 -17 113 -23 39 -7 72 -15 72 -19 0 -8 -121 -33 -159 -33 -29 0 -71 30 -91
65 -12 21 -12 29 0 54 l13 28 6 -30 c5 -24 13 -32 46 -42z m485 -129 c182 -61
302 -186 317 -332 6 -53 6 -54 -16 -43 -12 7 -47 11 -79 9 l-57 -3 72 -35 c82
-40 82 -41 31 -122 -30 -47 -100 -118 -118 -118 -5 0 -22 17 -37 37 -15 21
-46 61 -68 89 -22 28 -58 74 -80 103 -36 46 -43 51 -79 51 l-39 0 24 -29 c13
-16 70 -88 126 -159 l102 -130 -72 -26 c-90 -32 -161 -46 -243 -46 l-63 0 -3
73 -3 72 -32 3 -33 3 0 -70 0 -70 -52 15 c-85 25 -178 75 -232 125 l-50 46 59
78 c98 127 93 115 53 115 -30 0 -41 -8 -88 -66 l-53 -66 -16 29 c-10 18 -15
56 -15 108 -1 65 4 88 23 125 37 71 79 118 140 159 83 55 115 65 216 66 72 0
99 5 135 22 55 27 119 23 230 -13z m480 -528 c69 -34 249 -126 400 -203 151
-77 419 -213 595 -303 176 -89 424 -215 550 -280 127 -65 363 -185 525 -268
162 -82 309 -156 325 -165 120 -63 202 -104 278 -140 48 -22 87 -44 87 -48 0
-5 -30 -25 -67 -45 -38 -20 -98 -54 -135 -75 -36 -21 -95 -54 -130 -72 -34
-18 -100 -54 -145 -80 -205 -116 -251 -142 -298 -167 -27 -15 -87 -48 -132
-73 -46 -26 -120 -68 -165 -94 -46 -25 -114 -63 -153 -83 -38 -20 -88 -48
-110 -62 -22 -14 -54 -32 -72 -41 l-32 -17 -83 108 c-45 59 -88 113 -96 121
-7 7 -55 68 -107 135 -52 66 -143 182 -202 257 -60 75 -146 186 -193 245 -100
128 -98 126 -145 183 -19 24 -34 45 -33 46 2 2 58 -5 125 -14 l122 -17 6 24
c3 13 5 26 3 27 -7 7 -290 45 -298 40 -4 -3 -15 6 -23 19 -9 13 -22 29 -29 37
-7 8 -26 32 -43 54 -16 22 -35 46 -43 54 -7 7 -41 49 -75 94 -34 44 -79 101
-99 126 -49 61 -147 186 -175 224 -12 16 -38 48 -57 71 -19 23 -66 81 -104
129 l-69 88 62 62 c35 36 72 84 86 115 13 28 24 52 24 52 0 0 56 -29 125 -64z
m-1047 -185 c51 -28 144 -64 200 -76 25 -5 27 -8 27 -60 0 -54 0 -55 30 -55
29 0 30 1 30 50 l0 50 63 0 c92 0 180 17 270 52 l80 31 19 -24 c26 -33 129
-166 153 -199 11 -14 37 -46 57 -71 54 -65 118 -147 161 -206 21 -28 41 -53
45 -55 5 -2 28 -30 52 -63 24 -33 46 -62 50 -65 4 -3 25 -30 48 -60 23 -30 60
-77 83 -105 57 -70 59 -73 112 -142 26 -34 53 -68 60 -75 7 -7 26 -31 42 -53
17 -22 48 -63 70 -91 22 -28 52 -66 67 -85 15 -19 38 -48 53 -65 14 -18 64
-81 111 -140 47 -60 138 -176 202 -257 64 -82 139 -176 165 -210 l49 -62 -79
-2 c-43 -1 -924 -12 -1958 -23 -1034 -11 -1953 -21 -2043 -23 -89 -1 -162 0
-162 3 0 3 16 23 36 45 33 38 152 183 359 440 50 62 109 134 132 161 23 27 74
90 115 140 40 51 127 158 193 239 66 81 153 189 193 239 41 50 91 111 112 136
22 25 72 86 112 136 198 248 312 389 318 394 4 3 47 55 95 115 48 61 97 120
108 132 l20 22 49 -44 c27 -24 73 -58 101 -74z m3842 -1943 c-6 -536 -10 -654
-21 -661 -11 -6 -14 -47 -14 -191 0 -143 -3 -186 -14 -195 -9 -8 -146 -10
-487 -9 l-474 3 -100 215 c-55 118 -105 224 -112 235 -6 11 -52 110 -103 220
-50 110 -98 211 -107 223 -8 13 -13 25 -11 27 2 1 23 13 48 25 25 13 91 49
147 81 56 33 104 59 107 59 4 0 24 11 45 24 21 13 73 43 117 67 43 23 121 66
172 96 51 29 94 53 96 53 2 0 42 23 90 50 48 28 116 66 149 84 34 18 80 44
102 56 22 12 67 37 100 55 33 18 101 56 150 84 50 28 98 51 108 51 18 0 18
-23 12 -652z m-6568 272 c2 0 45 -28 94 -62 95 -67 229 -156 257 -173 25 -14
315 -207 325 -215 7 -6 -4 -38 -45 -130 -20 -44 -116 -271 -298 -704 -69 -163
-90 -204 -97 -191 -8 13 -17 16 -41 11 l-30 -7 20 -50 21 -51 -43 -106 c-91
-224 -142 -349 -165 -397 -13 -27 -64 -147 -113 -265 -50 -118 -133 -316 -185
-440 l-95 -225 -60 -7 c-33 -4 -77 -11 -97 -17 l-37 -10 6 77 c3 42 8 757 11
1587 3 831 8 1562 11 1626 l6 116 275 -184 c151 -101 277 -183 280 -183z
m5033 -426 c0 -8 -62 -120 -130 -234 -31 -52 -81 -140 -110 -195 -29 -55 -65
-118 -79 -140 -14 -22 -62 -105 -106 -185 l-80 -145 -762 -3 -762 -2 -3 137
c-3 130 -4 138 -23 138 -20 0 -20 -7 -20 -370 0 -363 0 -370 20 -370 19 0 20
8 23 208 l2 207 740 0 c407 0 740 -3 740 -6 0 -9 -135 -255 -200 -364 -32 -54
-69 -118 -81 -142 -12 -24 -63 -115 -114 -203 -94 -162 -328 -573 -535 -940
-62 -110 -123 -216 -135 -235 -12 -19 -66 -114 -120 -210 -54 -96 -130 -232
-170 -303 l-72 -127 -35 52 c-19 29 -63 96 -98 148 -34 52 -79 120 -99 150
-19 30 -38 57 -41 60 -6 6 -47 68 -146 220 -37 58 -71 109 -76 115 -5 5 -73
107 -151 226 -78 118 -167 253 -198 300 -31 46 -99 149 -151 229 -53 80 -110
165 -128 190 -108 155 -418 634 -414 641 2 4 -5 14 -17 22 -11 8 -63 80 -114
158 -51 79 -98 149 -103 155 -5 6 -43 62 -83 125 -41 63 -96 146 -122 184 -27
39 -63 93 -80 120 -18 28 -75 115 -129 195 l-97 145 617 8 c339 4 1294 16
2122 26 828 10 1508 19 1513 20 4 0 7 -2 7 -5z m84 -101 c15 -32 59 -125 98
-208 38 -82 105 -222 148 -310 74 -152 130 -273 130 -281 0 -2 -203 -4 -451
-4 l-451 0 53 98 c28 53 55 99 59 102 4 3 49 82 100 175 52 94 108 193 125
220 18 28 58 98 90 158 32 59 61 107 65 107 3 0 19 -26 34 -57z m-4324 -83
c30 -47 57 -87 61 -90 3 -3 38 -54 76 -115 39 -60 90 -137 113 -170 43 -62
190 -283 321 -484 l76 -116 -30 -50 c-17 -27 -44 -72 -60 -99 -30 -47 -30 -49
-12 -62 10 -8 22 -14 26 -14 5 0 26 30 48 68 69 117 57 117 137 -5 40 -59 91
-137 115 -173 23 -36 84 -128 135 -205 51 -77 106 -160 123 -185 18 -25 92
-136 166 -247 l135 -203 -125 0 -125 0 0 -30 0 -30 144 0 144 0 41 -62 c122
-187 243 -368 271 -408 41 -58 235 -351 327 -493 40 -62 80 -120 88 -130 19
-22 62 -25 -770 58 -352 35 -739 73 -860 85 -121 11 -395 39 -610 60 -214 21
-449 44 -520 50 l-131 12 4 69 c5 81 -18 197 -54 266 -13 26 -24 51 -24 55 0
6 104 74 124 81 7 2 7 13 -2 31 -12 28 -13 28 -40 10 -15 -10 -48 -30 -74 -44
l-48 -26 -54 52 c-58 56 -129 97 -212 123 l-52 16 49 120 c27 66 60 143 73
170 13 28 61 140 106 250 45 109 92 222 105 250 13 27 62 145 110 260 101 245
128 305 135 305 4 0 12 -16 19 -35 12 -35 21 -40 53 -27 15 6 14 14 -12 76
l-29 68 72 177 c39 97 74 178 77 181 4 3 44 97 90 210 45 113 95 232 110 265
28 61 75 170 92 214 10 29 9 30 78 -79z m4782 -882 c31 -62 79 -162 106 -223
27 -60 72 -155 100 -210 27 -55 57 -118 67 -140 10 -22 52 -110 93 -195 41
-85 102 -216 137 -290 78 -168 220 -465 240 -504 9 -16 14 -30 13 -31 -2 -1
-24 -13 -49 -28 -126 -72 -229 -261 -229 -418 0 -29 -4 -39 -16 -39 -8 0 -192
-22 -407 -49 -216 -27 -617 -77 -892 -111 -275 -34 -729 -90 -1010 -125 -280
-35 -534 -66 -563 -69 l-53 -5 42 77 c23 42 45 79 49 82 3 3 39 65 79 139 40
74 95 171 121 215 26 45 105 182 175 306 70 124 174 306 230 405 56 99 169
297 250 440 81 143 180 316 220 385 40 69 105 184 144 255 40 72 88 156 107
188 l35 57 478 0 478 0 55 -112z m958 -33 c0 -104 3 -146 13 -152 9 -6 11
-153 9 -690 l-3 -683 -47 0 c-26 0 -63 -4 -83 -9 l-36 -8 -43 96 c-24 53 -81
173 -126 266 -45 94 -96 202 -114 240 -18 39 -58 124 -90 190 -32 66 -103 216
-159 333 l-100 214 19 36 c29 57 80 194 75 202 -3 4 -14 10 -25 13 -21 5 -40
-27 -90 -152 l-14 -34 -21 49 c-13 27 -41 89 -64 137 -22 49 -41 90 -41 93 0
2 212 4 470 4 l470 0 0 -145z m-6953 -1542 c-18 -33 -72 -159 -113 -262 l-49
-124 -3 178 c-1 98 0 180 3 183 18 18 171 42 162 25z m197 -41 c58 -28 156
-104 156 -122 0 -5 -13 -17 -29 -26 -28 -17 -29 -18 -13 -39 16 -21 18 -22 49
-7 31 15 34 14 47 -3 7 -10 23 -46 36 -79 25 -70 40 -239 21 -250 -12 -8 -561
45 -561 54 0 3 15 14 33 24 132 75 136 78 124 103 -5 12 -14 23 -19 23 -4 0
-44 -23 -88 -50 -44 -28 -80 -46 -80 -42 0 11 77 196 120 288 16 36 30 67 30
69 0 2 9 25 20 50 20 46 21 47 56 42 20 -3 64 -19 98 -35z m6775 -114 c-1
-159 -7 -177 -38 -106 -14 29 -41 89 -63 133 -21 44 -38 81 -38 82 0 5 41 11
88 12 l52 1 -1 -122z m-7196 -138 c-6 -221 -5 -240 11 -240 10 0 16 -6 14 -16
-2 -12 65 -51 266 -152 l269 -136 -39 -34 c-178 -155 -452 -145 -619 22 -93
92 -141 194 -151 319 -14 170 64 346 196 443 25 19 48 34 52 34 3 0 4 -108 1
-240z m7323 210 c124 -70 214 -233 214 -385 0 -165 -98 -328 -239 -398 -59
-29 -74 -32 -156 -32 -82 0 -97 3 -157 33 -81 40 -190 152 -148 152 5 0 38 18
74 39 35 22 95 56 132 77 121 65 184 106 184 120 0 8 5 14 10 14 6 0 10 75 10
205 0 157 3 205 13 205 6 0 35 -13 63 -30z m-255 -127 c39 -82 76 -156 81
-166 7 -13 -15 -5 -76 27 -85 45 -89 46 -109 9 -4 -6 8 -19 31 -31 63 -33 117
-64 125 -71 6 -6 -124 -25 -325 -47 l-48 -5 0 35 c0 136 87 297 199 368 25 15
46 28 48 28 2 0 35 -66 74 -147z m-81 -353 c-158 -93 -189 -107 -200 -90 -14
22 -32 91 -25 98 6 6 232 39 280 41 25 0 17 -7 -55 -49z m-247 -140 c-4 -4
-37 -23 -73 -42 -62 -33 -161 -89 -300 -169 -36 -20 -92 -52 -125 -69 -33 -18
-85 -47 -115 -65 -30 -18 -80 -46 -110 -62 -30 -16 -93 -51 -140 -78 -236
-134 -292 -166 -370 -210 -47 -27 -107 -60 -135 -75 -27 -15 -88 -48 -135 -75
-47 -26 -130 -74 -185 -105 -55 -31 -138 -79 -185 -105 -47 -27 -110 -62 -140
-78 -30 -16 -80 -44 -110 -62 -30 -18 -80 -46 -110 -62 -56 -30 -149 -82 -326
-185 -55 -32 -103 -58 -107 -58 -3 0 -47 -25 -97 -55 -49 -30 -90 -52 -90 -48
0 3 17 26 37 51 35 43 36 45 18 58 -10 8 -22 14 -26 14 -4 0 -36 -34 -70 -75
-34 -42 -63 -74 -65 -73 -5 6 -48 1398 -42 1403 5 5 343 50 713 93 94 12 334
41 535 66 201 25 455 57 565 70 110 14 328 41 485 60 157 20 370 46 475 59
l189 22 24 -69 c12 -38 19 -72 15 -76z m-6443 111 c47 -5 151 -15 233 -22 143
-11 147 -12 141 -33 -9 -32 -56 -125 -68 -135 -7 -5 -90 31 -216 95 -113 57
-198 104 -190 104 8 0 53 -4 100 -9z m925 -91 c226 -22 707 -69 1070 -105 936
-92 1380 -137 1381 -138 2 -3 45 -1319 44 -1362 l0 -40 -68 73 c-66 72 -67 73
-90 57 l-23 -17 46 -54 c26 -30 43 -54 38 -54 -5 0 -13 4 -19 9 -5 5 -205 108
-444 229 -239 121 -676 341 -970 489 -1067 539 -1535 775 -1538 778 -2 2 10
27 26 56 17 30 35 71 42 92 12 38 13 39 54 33 22 -3 226 -23 451 -46z"/>
<path d="M7182 11915 c0 -16 2 -22 5 -12 2 9 2 23 0 30 -3 6 -5 -1 -5 -18z"/>
<path d="M6567 7273 c-3 -16 -5 -29 -4 -30 1 0 54 -8 117 -17 63 -9 129 -19
146 -21 28 -5 33 -2 38 21 4 14 5 28 3 30 -3 3 -268 44 -286 44 -5 0 -11 -12
-14 -27z"/>
<path d="M7166 7194 c-4 -14 -6 -28 -4 -29 3 -3 292 -43 295 -41 1 0 4 13 8
27 8 32 3 34 -150 49 -60 6 -117 13 -126 16 -12 3 -19 -3 -23 -22z"/>
<path d="M7760 7112 c0 -35 -9 -32 165 -52 55 -6 107 -13 116 -16 12 -3 19 4
23 22 4 14 6 28 4 29 -2 2 -57 11 -123 19 -66 9 -135 19 -152 22 -31 6 -33 5
-33 -24z"/>
<path d="M4751 7791 c-11 -7 -13 -33 -7 -142 4 -74 12 -137 18 -140 5 -3 1 -8
-9 -11 -15 -4 -130 -182 -148 -230 -4 -9 4 -19 19 -26 23 -10 26 -7 85 93 34
57 66 107 71 110 5 3 35 -39 67 -93 54 -92 60 -98 81 -89 12 6 22 14 22 19 0
5 -23 48 -51 95 -27 47 -48 87 -46 89 4 4 80 -5 183 -21 29 -5 32 -3 36 25 3
16 3 30 2 30 -9 0 -222 31 -241 35 -22 5 -23 10 -25 133 -3 118 -4 127 -23
130 -11 1 -26 -2 -34 -7z"/>
<path d="M4323 7475 c-79 -12 -145 -24 -149 -27 -11 -12 7 -48 24 -48 26 1
273 38 278 42 2 2 0 15 -4 29 l-7 25 -142 -21z"/>
<path d="M5370 7433 l0 -30 128 -17 c70 -9 137 -19 148 -21 18 -4 23 1 26 24
5 36 5 36 -147 51 -60 6 -120 14 -132 17 -20 4 -23 1 -23 -24z"/>
<path d="M3696 7389 c-65 -10 -121 -20 -123 -23 -2 -2 -1 -15 2 -28 6 -24 8
-24 78 -17 146 16 227 31 227 44 0 30 -13 45 -39 44 -14 -1 -80 -10 -145 -20z"/>
<path d="M5085 7018 c-11 -6 -21 -12 -23 -13 -3 -3 118 -206 135 -227 12 -14
19 -15 39 -6 14 7 23 17 20 23 -4 12 -116 187 -138 217 -11 14 -17 15 -33 6z"/>
<path d="M4395 6928 c-27 -46 -59 -97 -72 -114 -13 -17 -23 -36 -23 -42 0 -16
40 -36 51 -25 10 10 139 224 139 231 0 6 -33 31 -41 32 -3 0 -27 -37 -54 -82z"/>
<path d="M5385 6528 c-11 -6 -21 -12 -23 -14 -5 -3 25 -60 40 -76 8 -7 33 -47
58 -88 24 -41 45 -76 46 -78 1 -2 14 2 28 10 l25 13 -72 123 c-40 67 -74 122
-77 122 -3 -1 -14 -6 -25 -12z"/>
<path d="M4070 6397 c-68 -113 -72 -121 -54 -134 10 -7 21 -13 25 -13 4 0 24
28 45 63 21 34 41 64 44 67 10 8 60 98 60 108 0 5 -11 14 -24 20 -22 10 -26 5
-96 -111z"/>
<path d="M8208 6678 c-15 -27 -99 -241 -95 -244 1 -1 13 -5 27 -8 23 -6 27 -1
57 66 40 93 76 189 71 192 -1 2 -13 7 -25 10 -16 5 -25 1 -35 -16z"/>
<path d="M7983 6123 c-67 -154 -87 -215 -72 -224 27 -17 38 -9 63 44 42 88 85
202 78 208 -4 4 -16 10 -28 13 -17 5 -24 -2 -41 -41z"/>
<path d="M7779 5611 c-44 -91 -95 -237 -85 -243 20 -13 46 -8 53 10 3 9 17 42
30 72 41 90 65 159 59 169 -14 22 -44 18 -57 -8z"/>
<path d="M1300 6700 c-17 -11 -9 -39 46 -157 19 -40 34 -76 34 -80 1 -25 17
-34 42 -23 l25 12 -51 129 c-51 128 -61 141 -96 119z"/>
<path d="M1523 6173 c-22 -8 -17 -27 52 -178 12 -27 26 -60 29 -72 8 -26 13
-27 42 -10 21 12 21 13 -30 139 -50 125 -58 136 -93 121z"/>
<path d="M1743 5643 c-20 -7 -16 -26 25 -115 22 -46 44 -100 51 -120 14 -42
16 -43 48 -25 21 12 21 12 -30 139 -51 125 -59 136 -94 121z"/>
<path d="M5678 6030 c-14 -9 -8 -24 54 -128 38 -64 72 -119 74 -121 6 -7 54
18 54 27 0 5 -9 19 -19 31 -11 12 -43 62 -71 111 -53 90 -61 98 -92 80z"/>
<path d="M3778 5916 c-37 -61 -68 -117 -70 -124 -2 -8 7 -20 18 -28 21 -14 24
-11 93 106 39 66 71 122 71 124 0 2 -10 10 -23 19 -22 14 -24 12 -89 -97z"/>
<path d="M5977 5538 c-16 -12 -13 -19 28 -83 25 -38 59 -93 76 -122 30 -52 31
-52 55 -37 26 18 28 11 -33 114 -86 145 -93 152 -126 128z"/>
<path d="M3489 5442 c-98 -153 -96 -149 -74 -167 28 -21 32 -19 55 23 12 20
45 75 75 122 53 84 53 85 32 97 -12 7 -24 12 -27 13 -3 0 -30 -39 -61 -88z"/>
<path d="M4674 5165 c0 -159 2 -223 3 -142 2 82 2 212 0 290 -1 78 -3 12 -3
-148z"/>
<path d="M4350 3785 l0 -25 150 0 150 0 0 25 0 25 -150 0 -150 0 0 -25z"/>
<path d="M4950 3785 l0 -25 155 0 155 0 0 25 0 25 -155 0 -155 0 0 -25z"/>
<path d="M2188 4587 l-27 -12 24 -50 c14 -27 39 -85 56 -128 30 -74 33 -78 58
-72 14 4 27 8 28 9 3 3 -98 250 -105 258 -4 3 -19 1 -34 -5z"/>
<path d="M2896 4464 c-27 -47 -52 -87 -57 -90 -5 -3 -16 -19 -25 -35 -12 -24
-13 -34 -3 -45 25 -30 44 -13 112 102 37 63 67 118 67 123 0 4 -10 13 -23 18
-22 10 -26 6 -71 -73z"/>
<path d="M2408 4058 l-28 -10 24 -46 c13 -26 38 -84 56 -129 18 -46 36 -83 41
-83 5 0 8 -4 6 -8 -1 -4 11 -23 26 -41 27 -33 28 -33 48 -15 11 10 17 24 15
31 -4 10 20 13 119 13 l125 0 0 25 0 25 -136 0 -136 0 18 28 c10 15 39 61 65
103 l48 76 -25 13 c-29 16 -32 13 -94 -92 -22 -37 -44 -69 -49 -72 -5 -3 -26
36 -46 87 -20 50 -40 95 -43 98 -4 4 -19 2 -34 -3z"/>
<path d="M3140 3795 l0 -25 150 0 150 0 0 25 0 25 -150 0 -150 0 0 -25z"/>
<path d="M2324 3711 c-51 -33 -108 -67 -127 -76 -33 -15 -35 -19 -25 -41 14
-31 21 -30 77 4 25 16 79 48 119 72 40 23 74 45 76 49 3 4 -3 16 -12 29 l-17
22 -91 -59z"/>
<path d="M2770 3505 c-16 -20 -14 -24 56 -102 34 -37 75 -83 91 -101 28 -33
29 -34 51 -15 l23 18 -93 107 c-51 59 -98 107 -104 107 -6 1 -17 -6 -24 -14z"/>
<path d="M3157 3063 c-15 -16 -13 -20 30 -72 70 -84 137 -151 149 -151 6 0 17
7 24 15 10 13 2 27 -52 88 -35 39 -77 87 -93 105 -33 37 -35 38 -58 15z"/>
<path d="M6284 5048 c-20 -9 -18 -15 54 -134 72 -120 76 -124 96 -110 12 8 20
20 18 27 -5 19 -134 229 -141 228 -3 0 -15 -5 -27 -11z"/>
<path d="M7347 4541 c-30 -68 -87 -212 -87 -220 0 -4 11 -13 24 -19 22 -10 25
-7 44 36 24 54 45 103 72 172 l19 48 -28 10 c-26 9 -29 8 -44 -27z"/>
<path d="M6588 4559 c-10 -5 -18 -14 -18 -18 0 -11 120 -211 137 -229 9 -10
18 -10 33 -2 11 6 20 15 20 20 0 6 -24 47 -53 93 -30 45 -62 97 -72 115 -21
35 -22 36 -47 21z"/>
<path d="M6888 4066 c-24 -18 -23 -26 10 -72 15 -21 47 -72 71 -111 24 -40 45
-73 48 -73 2 0 13 5 23 10 16 8 18 8 14 -5 -5 -12 -30 -15 -145 -15 l-139 0 0
-25 0 -25 140 0 141 0 79 -45 c194 -110 179 -104 197 -76 11 18 4 25 -88 80
-55 34 -104 61 -110 61 -21 0 -19 31 6 87 54 117 69 165 54 174 -36 22 -45 10
-94 -115 l-31 -79 -73 122 c-40 66 -76 121 -80 121 -3 0 -14 -7 -23 -14z"/>
<path d="M5560 3780 l0 -30 150 0 150 0 0 30 0 30 -150 0 -150 0 0 -30z"/>
<path d="M6160 3775 l0 -25 150 0 150 0 0 25 0 25 -150 0 -150 0 0 -25z"/>
<path d="M6813 3504 c-37 -47 -78 -98 -90 -112 -12 -14 -21 -26 -20 -27 1 0
12 -8 23 -18 21 -18 22 -17 95 75 41 51 82 99 91 106 24 18 23 27 -7 46 -24
16 -24 15 -92 -70z"/>
<path d="M7590 3480 c-7 -12 -8 -26 -3 -30 12 -11 246 -141 248 -138 1 2 8 13
14 26 11 20 9 24 -16 38 -15 8 -68 38 -118 66 -114 64 -111 63 -125 38z"/>
<path d="M6462 3074 c-30 -35 -70 -84 -89 -110 l-35 -46 20 -20 20 -20 43 54
c24 31 66 80 92 111 48 56 51 69 19 86 -13 7 -28 -5 -70 -55z"/>
<path d="M6103 2633 c-21 -27 -59 -73 -85 -102 -27 -30 -48 -60 -48 -66 0 -5
9 -16 21 -23 17 -11 23 -11 32 1 7 9 48 59 92 112 75 92 78 98 60 111 -27 20
-30 19 -72 -33z"/>
<path d="M5709 2149 c-35 -45 -75 -93 -89 -106 l-25 -24 25 -20 24 -21 24 29
c125 152 153 194 142 208 -22 26 -36 17 -101 -66z"/>
<path d="M5328 1684 c-46 -58 -84 -111 -86 -117 -1 -7 6 -18 17 -24 19 -12 26
-6 78 60 31 39 67 83 81 97 41 42 44 56 17 74 -23 15 -24 15 -107 -90z"/>
<path d="M3546 2631 c-22 -24 -25 -18 82 -145 40 -47 78 -86 85 -86 7 0 20 7
30 14 16 13 13 19 -45 82 -35 38 -79 89 -98 112 -36 43 -36 43 -54 23z"/>
<path d="M3926 2187 c-17 -12 -16 -15 10 -48 26 -31 151 -176 157 -181 1 -2
13 5 26 14 l24 17 -44 49 c-24 26 -66 74 -92 105 -27 31 -52 57 -56 57 -4 0
-15 -6 -25 -13z"/>
<path d="M4305 1751 c-17 -19 -15 -22 48 -93 36 -40 79 -89 96 -108 29 -34 30
-34 50 -16 20 18 20 18 -22 70 -75 92 -141 166 -147 166 -4 0 -15 -9 -25 -19z"/>
<path d="M3240 7324 c-14 -2 -80 -11 -147 -21 l-123 -16 7 -26 c3 -14 7 -28 9
-30 3 -3 59 3 127 13 186 27 174 23 169 57 -2 16 -7 28 -11 28 -3 -1 -17 -3
-31 -5z"/>
<path d="M2615 7235 c-5 -2 -62 -11 -126 -20 l-115 -17 4 -29 c3 -23 8 -28 26
-24 11 2 71 11 131 20 159 23 153 21 147 50 -3 19 -10 25 -31 24 -14 0 -30 -2
-36 -4z"/>
<path d="M1915 7138 c-71 -11 -132 -21 -134 -23 -2 -2 -1 -15 3 -29 6 -24 9
-25 59 -19 88 9 239 32 244 36 2 3 1 16 -3 31 -7 30 2 30 -169 4z"/>
<path d="M10700 6305 c0 -115 2 -126 18 -123 15 3 17 17 17 123 0 106 -2 120
-17 123 -16 3 -18 -8 -18 -123z"/>
<path d="M11320 6305 c0 -117 1 -125 19 -125 16 0 20 8 23 43 l3 42 29 -42
c16 -25 37 -43 47 -43 25 0 24 8 -6 52 -30 45 -31 50 -5 73 11 10 20 24 20 32
0 25 -35 12 -62 -24 l-28 -36 0 76 c0 70 -2 77 -20 77 -19 0 -20 -7 -20 -125z"/>
<path d="M10500 6295 c0 -108 1 -115 20 -115 17 0 20 7 20 40 0 36 3 40 25 40
62 0 105 53 85 106 -12 29 -46 44 -106 44 l-44 0 0 -115z m107 59 c9 -24 -10
-49 -41 -52 -24 -3 -26 0 -26 32 0 33 2 36 30 36 19 0 33 -6 37 -16z"/>
<path d="M10794 6336 c-26 -19 -11 -31 35 -27 27 2 40 -2 44 -13 5 -12 0 -16
-18 -16 -49 0 -75 -17 -75 -50 0 -39 36 -59 74 -42 18 8 26 8 28 0 3 -7 12 -9
21 -5 26 10 24 120 -3 147 -24 24 -77 27 -106 6z m84 -98 c-5 -15 -33 -22 -54
-14 -24 9 -6 26 27 26 20 0 29 -4 27 -12z"/>
<path d="M10970 6264 c0 -76 2 -85 18 -82 13 2 18 15 20 60 2 47 6 58 23 63
30 10 37 -3 41 -65 3 -47 6 -55 23 -55 24 0 30 35 20 102 -8 54 -38 74 -82 54
-19 -9 -29 -9 -31 -2 -2 6 -10 11 -18 11 -11 0 -14 -18 -14 -86z"/>
<path d="M11193 6338 c-27 -13 -44 -67 -34 -105 16 -60 111 -70 119 -13 3 21
2 22 -11 11 -9 -7 -26 -11 -39 -9 -20 3 -23 9 -23 43 0 34 3 40 23 43 13 2 30
-2 38 -8 11 -10 14 -9 14 8 0 36 -44 51 -87 30z"/>
</g>
</svg>
